<?xml version="1.0" encoding="UTF-8" standalone="no"?>
<svg xmlns="http://www.w3.org/2000/svg" class="card" face="1B" height="3.5in" preserveAspectRatio="none" viewBox="-120 -168 240 336" width="2.5in"><rect width="239" height="335" x="-119.5" y="-167.5" rx="12" ry="12" fill="white" stroke="black"></rect><rect width="216.095" height="313.967" x="-108.047" y="-156.983" fill="black"></rect><path d="M0,0h-1h-1v1h-1v1v1v1v1h1h1h1h1v1v1h-1h-1h-1h-1v1h1v1v1v1v1v1h-1v1h1v1h1v1v1h-1v1v1v1h-1v1v1h-1v-1h-1v-1v-1h-1h-1h-1v-1h1v-1h1v-1h-1v-1v-1v-1h1h1v-1h1v1v1v1h-1v-1h-1v1M-5,15v1h1h1v1h-1v1h-1h-1M-5,18v-1M-4,18h1v1h-1v1M-3,16v-1M-4,12h1v-1h-1h-1h-1v1h-1h-1v1h-1h-1v-1v-1h1h1h1v-1v-1h1v-1v-1h-1h-1v-1h1h1v-1h1v1v1v1h1v1v1h1v-1M-4,10h-1v-1M-5,10h-1M-4,8v-1v-1v-1v-1v-1v-1v-1v-1h1v-1v-1v-1h-1v-1v-1h-1v1v1v1h-1h-1h-1h-1h-1v-1v-1h-1v1h-1v1v1v1h1v1h1v1h-1h-1v-1h-1v-1h-1v1h-1h-1v1v1h-1v-1v-1v-1v-1h1h1h1v-1h1v1M-13,-2v-1v-1v-1h-1v1h-1v1v1h-1h-1v-1v-1h1v1M-16,-4v-1v-1v-1h1h1v1h1h1v1v1M-12,-5h1v-1v-1h-1h-1v-1v-1h1h1v1h1h1v1v1h-1v1h1v1h1v-1h1h1v-1h-1h-1v-1v-1v-1v-1v-1h-1v1v1h-1v-1v-1v-1h1v-1h1v-1v-1v-1v-1h1v-1v-1h-1h-1v1h1M-9,-18h-1h-1v-1h-1h-1v-1h1v-1h1h1v-1h-1h-1v-1h-1v1v1h-1v1h-1v-1v-1v-1v-1h1h1v-1h-1h-1h-1h-1v1v1v1h1v1h-1v1h1v1v1h1v-1h1v1v1v1h1v1v1v1h1v1h-1v1h1v1h1v-1v-1v-1h1v-1h-1h-1v-1h1v-1v-1h-1v1M-12,-17h-1v-1h1M-11,-17h1h1v1v1h-1v-1M-9,-15v1M-12,-10h-1h-1v1h-1v-1h-1v1h-1v1v1v1v1M-17,-8h1h1h1M-17,-9v-1v-1v-1v-1h1v-1h-1v-1h1h1v-1v-1h-1h-1v1h1M-17,-17v-1v-1M-15,-15v1v1h1v1v1h-1h-1v-1h1M-14,-13v-1v-1M-16,-22v-1v-1M-13,-25h1v1h1v-1h1h1h1h1h1h1h1v1v1h1v1v1v1h-1h-1v-1h-1v1v1v1v1v1v1h-1v1v1v1h-1M-7,-12v1v1v1h1h1h1v1h1v1v1v1v1h1v-1v-1v-1v-1v-1v-1h1v1v1h1v-1h1v1M1,-9v-1v-1h-1v-1h-1v1h-1v-1h-1v1v1v1M-3,-10h-1v-1v-1h-1h-1v-1v-1h1h1h1v-1h1v1h1h1v1h-1h-1h-1h-1h-1M0,-13h1v-1M1,-13v1M0,-14v-1h-1v-1h-1v-1v-1h1h1v1h-1M0,-17v1M0,-18h1v-1v-1v-1h-1h-1v-1v-1h-1v1v1v1v1h-1v1v1v1h-1v1h-1v-1v-1h1v-1h-1v-1h1M-2,-19h1h1v-1h-1M-2,-23v-1h-1v-1h1h1h1v1h1v-1h1h1h1v1h1v1v1h1h1v1h-1v1h1h1h1v-1h-1v-1v-1h-1h-1v-1h1v-1h-1h-1M7,-25h1h1h1v1h1v-1h1v1h1v-1h1h1h1h1v1v1h-1v-1h-1h-1v1h-1h-1v1h-1h-1v-1h-1v-1h-1M9,-23v1M10,-23h1M10,-22v1v1h1h1v-1h-1M12,-21h1v1h1v-1h1h1v-1h-1v-1M15,-22h-1h-1M16,-22h1v1v1v1v1v1v1v1h-1v1h1v1h-1v1h1v1h-1v1h-1h-1v1v1h1v1h-1h-1v-1h-1v-1h1v-1v-1h-1h-1v1h1M11,-10h-1h-1h-1v1h1h1h1v1h-1v1h1h1v1h-1h-1v1h1v1h-1h-1v-1v-1v-1v-1h-1h-1M9,-5h-1v1h-1v-1M7,-4h-1h-1v1v1h1h1v-1h-1M7,-3h1h1v1v1h-1v1v1h-1h-1v-1v-1h-1v1v1h-1v1M6,-1h1v1M8,1h1h1v-1h-1M10,1h1v1M8,-1v-1M9,-3h1h1h1v-1h1h1v-1h1v-1h-1h-1v1h-1M15,-6h1v-1h1v-1h-1v-1h-1M16,-9h1v-1M17,-7v1v1v1h-1h-1v1h-1v1h1M14,-2h-1v-1M16,-4v-1M11,-11v-1v-1h1v-1v-1h-1h-1v1h-1v-1v-1h1v-1h-1h-1v1v1v1M9,-17v-1h1v-1h1h1h1v1h-1v1h1h1v-1v-1h1v1h1v1v1h-1v-1M15,-16v1v1h-1v-1v-1h-1h-1h-1v-1v-1M13,-16v1v1v1v1h-1M13,-12h1v1h1v-1v-1h-1M16,-18v-1v-1h-1M10,-19h-1M10,-14h1M5,-23h-1h-1v-1h-1v1h-1h-1v1h1h1v1M0,-24h-1M-6,-12v1h1v1h-1M0,-11v1M-2,-4h1h1v1v1h1h1v-1h-1v-1h1M1,-2v1h-1h-1h-1v-1h1v-1h-1M-3,-6h-1h-1v-1v-1h-1v1h-1v-1M-5,-7h1M-7,-15v-1M-6,-20h-1h-1v-1v-1h1v1M-7,-22v-1h1v-1h-1h-1h-1v1h1M-9,-23h-1v-1M-10,-23h-1M-6,-24h1v1v1h-1M-5,-22h1v1M-8,-22h-1v1v1h-1h-1M-10,-20v1M-14,-24v1v1M-6,-5v1v1h-1v-1M-7,-3h-1h-1M-10,-6v-1M-11,-8h-1M-14,-6h-1v1M-15,-3h1M-15,-1v1h-1M-4,6h1h1h1h1M-9,11v1M-2,17v-1" transform="scale(6.117)" fill="none" stroke="white" stroke-width="0.674" stroke-linecap="square" stroke-linejoin="miter"></path><path d="M0,0h-1h-1v1h-1v1v1v1v1h1h1h1h1v1v1h-1h-1h-1h-1v1h1v1v1v1v1v1h-1v1h1v1h1v1v1h-1v1v1v1h-1v1v1h-1v-1h-1v-1v-1h-1h-1h-1v-1h1v-1h1v-1h-1v-1v-1v-1h1h1v-1h1v1v1v1h-1v-1h-1v1M-5,15v1h1h1v1h-1v1h-1h-1M-5,18v-1M-4,18h1v1h-1v1M-3,16v-1M-4,12h1v-1h-1h-1h-1v1h-1h-1v1h-1h-1v-1v-1h1h1h1v-1v-1h1v-1v-1h-1h-1v-1h1h1v-1h1v1v1v1h1v1v1h1v-1M-4,10h-1v-1M-5,10h-1M-4,8v-1v-1v-1v-1v-1v-1v-1v-1h1v-1v-1v-1h-1v-1v-1h-1v1v1v1h-1h-1h-1h-1h-1v-1v-1h-1v1h-1v1v1v1h1v1h1v1h-1h-1v-1h-1v-1h-1v1h-1h-1v1v1h-1v-1v-1v-1v-1h1h1h1v-1h1v1M-13,-2v-1v-1v-1h-1v1h-1v1v1h-1h-1v-1v-1h1v1M-16,-4v-1v-1v-1h1h1v1h1h1v1v1M-12,-5h1v-1v-1h-1h-1v-1v-1h1h1v1h1h1v1v1h-1v1h1v1h1v-1h1h1v-1h-1h-1v-1v-1v-1v-1v-1h-1v1v1h-1v-1v-1v-1h1v-1h1v-1v-1v-1v-1h1v-1v-1h-1h-1v1h1M-9,-18h-1h-1v-1h-1h-1v-1h1v-1h1h1v-1h-1h-1v-1h-1v1v1h-1v1h-1v-1v-1v-1v-1h1h1v-1h-1h-1h-1h-1v1v1v1h1v1h-1v1h1v1v1h1v-1h1v1v1v1h1v1v1v1h1v1h-1v1h1v1h1v-1v-1v-1h1v-1h-1h-1v-1h1v-1v-1h-1v1M-12,-17h-1v-1h1M-11,-17h1h1v1v1h-1v-1M-9,-15v1M-12,-10h-1h-1v1h-1v-1h-1v1h-1v1v1v1v1M-17,-8h1h1h1M-17,-9v-1v-1v-1v-1h1v-1h-1v-1h1h1v-1v-1h-1h-1v1h1M-17,-17v-1v-1M-15,-15v1v1h1v1v1h-1h-1v-1h1M-14,-13v-1v-1M-16,-22v-1v-1M-13,-25h1v1h1v-1h1h1h1h1h1h1h1v1v1h1v1v1v1h-1h-1v-1h-1v1v1v1v1v1v1h-1v1v1v1h-1M-7,-12v1v1v1h1h1h1v1h1v1v1v1v1h1v-1v-1v-1v-1v-1v-1h1v1v1h1v-1h1v1M1,-9v-1v-1h-1v-1h-1v1h-1v-1h-1v1v1v1M-3,-10h-1v-1v-1h-1h-1v-1v-1h1h1h1v-1h1v1h1h1v1h-1h-1h-1h-1h-1M0,-13h1v-1M1,-13v1M0,-14v-1h-1v-1h-1v-1v-1h1h1v1h-1M0,-17v1M0,-18h1v-1v-1v-1h-1h-1v-1v-1h-1v1v1v1v1h-1v1v1v1h-1v1h-1v-1v-1h1v-1h-1v-1h1M-2,-19h1h1v-1h-1M-2,-23v-1h-1v-1h1h1h1v1h1v-1h1h1h1v1h1v1v1h1h1v1h-1v1h1h1h1v-1h-1v-1v-1h-1h-1v-1h1v-1h-1h-1M7,-25h1h1h1v1h1v-1h1v1h1v-1h1h1h1h1v1v1h-1v-1h-1h-1v1h-1h-1v1h-1h-1v-1h-1v-1h-1M9,-23v1M10,-23h1M10,-22v1v1h1h1v-1h-1M12,-21h1v1h1v-1h1h1v-1h-1v-1M15,-22h-1h-1M16,-22h1v1v1v1v1v1v1v1h-1v1h1v1h-1v1h1v1h-1v1h-1h-1v1v1h1v1h-1h-1v-1h-1v-1h1v-1v-1h-1h-1v1h1M11,-10h-1h-1h-1v1h1h1h1v1h-1v1h1h1v1h-1h-1v1h1v1h-1h-1v-1v-1v-1v-1h-1h-1M9,-5h-1v1h-1v-1M7,-4h-1h-1v1v1h1h1v-1h-1M7,-3h1h1v1v1h-1v1v1h-1h-1v-1v-1h-1v1v1h-1v1M6,-1h1v1M8,1h1h1v-1h-1M10,1h1v1M8,-1v-1M9,-3h1h1h1v-1h1h1v-1h1v-1h-1h-1v1h-1M15,-6h1v-1h1v-1h-1v-1h-1M16,-9h1v-1M17,-7v1v1v1h-1h-1v1h-1v1h1M14,-2h-1v-1M16,-4v-1M11,-11v-1v-1h1v-1v-1h-1h-1v1h-1v-1v-1h1v-1h-1h-1v1v1v1M9,-17v-1h1v-1h1h1h1v1h-1v1h1h1v-1v-1h1v1h1v1v1h-1v-1M15,-16v1v1h-1v-1v-1h-1h-1h-1v-1v-1M13,-16v1v1v1v1h-1M13,-12h1v1h1v-1v-1h-1M16,-18v-1v-1h-1M10,-19h-1M10,-14h1M5,-23h-1h-1v-1h-1v1h-1h-1v1h1h1v1M0,-24h-1M-6,-12v1h1v1h-1M0,-11v1M-2,-4h1h1v1v1h1h1v-1h-1v-1h1M1,-2v1h-1h-1h-1v-1h1v-1h-1M-3,-6h-1h-1v-1v-1h-1v1h-1v-1M-5,-7h1M-7,-15v-1M-6,-20h-1h-1v-1v-1h1v1M-7,-22v-1h1v-1h-1h-1h-1v1h1M-9,-23h-1v-1M-10,-23h-1M-6,-24h1v1v1h-1M-5,-22h1v1M-8,-22h-1v1v1h-1h-1M-10,-20v1M-14,-24v1v1M-6,-5v1v1h-1v-1M-7,-3h-1h-1M-10,-6v-1M-11,-8h-1M-14,-6h-1v1M-15,-3h1M-15,-1v1h-1M-4,6h1h1h1h1M-9,11v1M-2,17v-1" transform="scale(6.117)rotate(180)" fill="none" stroke="white" stroke-width="0.674" stroke-linecap="square" stroke-linejoin="miter"></path></svg>
